<svg width="24" height="24" viewBox="0 0 24 24" fill="none" xmlns="http://www.w3.org/2000/svg">
<path fill-rule="evenodd" clip-rule="evenodd" d="M10 11C8.34315 11 7 12.3431 7 14C7 15.6569 8.34315 17 10 17H14C15.6569 17 17 15.6569 17 14C17 12.3431 15.6569 11 14 11H10ZM9 14C9 13.4477 9.44771 13 10 13H14C14.5523 13 15 13.4477 15 14C15 14.5523 14.5523 15 14 15H10C9.44771 15 9 14.5523 9 14Z" fill="black" fill-opacity="0.85"/>
<path fill-rule="evenodd" clip-rule="evenodd" d="M17 1.5C15.8954 1.5 15 2.39543 15 3.5C15 3.88245 15.1073 4.23983 15.2936 4.54365L13.4458 7.5H10.5542L8.70644 4.54365C8.89265 4.23983 9 3.88245 9 3.5C9 2.39543 8.10457 1.5 7 1.5C5.89543 1.5 5 2.39543 5 3.5C5 4.58625 5.86597 5.47024 6.94521 5.49926L8.19567 7.5H5.5C4.39543 7.5 3.5 8.39543 3.5 9.5V11H2C1.44772 11 1 11.4477 1 12V17C1 17.5523 1.44772 18 2 18H3.5V20.5C3.5 21.6046 4.39543 22.5 5.5 22.5H18.5C19.6046 22.5 20.5 21.6046 20.5 20.5V18H22C22.5523 18 23 17.5523 23 17V12C23 11.4477 22.5523 11 22 11H20.5V9.5C20.5 8.39543 19.6046 7.5 18.5 7.5H15.8043L17.0548 5.49926C18.134 5.47024 19 4.58625 19 3.5C19 2.39543 18.1046 1.5 17 1.5ZM18.5 9.5H14.0222C14.0068 9.50036 13.9914 9.50036 13.9759 9.5H10.0241C10.0086 9.50036 9.99321 9.50036 9.9778 9.5H5.5V20.5H18.5V9.5ZM20.5 16V13H21V16H20.5ZM3 13H3.5V16H3V13Z" fill="black" fill-opacity="0.85"/>
<path d="M10 13C9.44771 13 9 13.4477 9 14C9 14.5523 9.44771 15 10 15H14C14.5523 15 15 14.5523 15 14C15 13.4477 14.5523 13 14 13H10Z" fill="#91D5FF"/>
</svg>
