<svg width="24" height="24" viewBox="0 0 24 24" fill="none" xmlns="http://www.w3.org/2000/svg">
<path d="M14.8471 1.37517C14.693 1.33387 14.5387 1.29605 14.3843 1.26166C13.8452 1.1416 13.3109 1.48128 13.1908 2.02036C13.0707 2.55943 13.4104 3.09377 13.9495 3.21383C14.0761 3.24204 14.2028 3.27309 14.3295 3.30703C14.4561 3.34096 14.5814 3.37742 14.7052 3.41631C15.2321 3.58188 15.7934 3.28896 15.959 2.76208C16.1245 2.23519 15.8316 1.67386 15.3047 1.50829C15.1538 1.46088 15.0013 1.41648 14.8471 1.37517Z" fill="black" fill-opacity="0.85"/>
<path d="M18.3136 2.9893C17.8614 2.67235 17.2378 2.78208 16.9208 3.23437C16.6039 3.68666 16.7136 4.31024 17.1659 4.62718C17.3796 4.77695 17.5859 4.93547 17.7843 5.10209C18.2072 5.45725 18.838 5.4023 19.1932 4.97936C19.5483 4.55642 19.4934 3.92564 19.0705 3.57048C18.8277 3.36663 18.5753 3.17263 18.3136 2.9893Z" fill="black" fill-opacity="0.85"/>
<path d="M11.213 3.03211C11.7632 2.98378 12.17 2.4986 12.1217 1.94843C12.0733 1.39827 11.5881 0.991451 11.038 1.03979C10.7197 1.06775 10.4041 1.10954 10.092 1.1647C9.5481 1.26081 9.18512 1.77961 9.28123 2.32346C9.37734 2.86732 9.89613 3.2303 10.44 3.13419C10.6951 3.0891 10.953 3.05495 11.213 3.03211Z" fill="black" fill-opacity="0.85"/>
<path d="M21.2793 6.09284C20.9828 5.62688 20.3647 5.4895 19.8987 5.78599C19.4328 6.08248 19.2954 6.70056 19.5919 7.16652C19.7316 7.38616 19.8619 7.61175 19.9822 7.84261C20.2375 8.33235 20.8415 8.52242 21.3312 8.26714C21.821 8.01185 22.011 7.40789 21.7557 6.91815C21.6089 6.63634 21.4499 6.36096 21.2793 6.09284Z" fill="black" fill-opacity="0.85"/>
<path d="M7.84237 4.01824C8.33211 3.76296 8.52218 3.159 8.26689 2.66925C8.01161 2.17951 7.40765 1.98944 6.9179 2.24473C6.63609 2.39162 6.36071 2.55061 6.09259 2.72122C5.62664 3.01771 5.48926 3.63579 5.78575 4.10174C6.08224 4.56769 6.70032 4.70507 7.16627 4.40859C7.38592 4.26883 7.61151 4.13858 7.84237 4.01824Z" fill="black" fill-opacity="0.85"/>
<path d="M22.8358 10.0922C22.7397 9.54834 22.2209 9.18537 21.677 9.28147C21.1332 9.37758 20.7702 9.89638 20.8663 10.4402C20.9114 10.6954 20.9455 10.9533 20.9684 11.2133C21.0167 11.7634 21.5019 12.1702 22.052 12.1219C22.6022 12.0736 23.009 11.5884 22.9607 11.0382C22.9327 10.72 22.8909 10.4044 22.8358 10.0922Z" fill="black" fill-opacity="0.85"/>
<path d="M5.10185 6.21617C5.45701 5.79323 5.40206 5.16245 4.97912 4.80729C4.55618 4.45213 3.9254 4.50708 3.57024 4.93002C3.36639 5.17278 3.17239 5.4252 2.98905 5.68683C2.67211 6.13912 2.78183 6.76271 3.23412 7.07965C3.68641 7.39659 4.31 7.28687 4.62694 6.83458C4.77671 6.62085 4.93523 6.41459 5.10185 6.21617Z" fill="black" fill-opacity="0.85"/>
<path d="M3.41607 9.29531C3.58163 8.76842 3.28872 8.20708 2.76184 8.04152C2.23495 7.87596 1.67361 8.16887 1.50805 8.69576C1.46063 8.84666 1.41623 8.99921 1.37493 9.15335C1.33363 9.30749 1.29581 9.4618 1.26142 9.6162C1.14136 10.1553 1.48103 10.6896 2.02011 10.8097C2.55919 10.9297 3.09353 10.5901 3.21359 10.051C3.2418 9.92433 3.27285 9.79764 3.30678 9.67099C3.34072 9.54433 3.37717 9.41909 3.41607 9.29531Z" fill="black" fill-opacity="0.85"/>
<path d="M22.7388 14.3845C22.8589 13.8454 22.5192 13.3111 21.9801 13.191C21.441 13.071 20.9067 13.4107 20.7866 13.9497C20.7584 14.0764 20.7274 14.2031 20.6934 14.3297C20.6595 14.4564 20.6231 14.5816 20.5842 14.7054C20.4186 15.2323 20.7115 15.7936 21.2384 15.9592C21.7653 16.1248 22.3266 15.8318 22.4922 15.305C22.5396 15.1541 22.584 15.0015 22.6253 14.8474C22.6666 14.6932 22.7044 14.5389 22.7388 14.3845Z" fill="black" fill-opacity="0.85"/>
<path d="M21.0112 18.3139C21.3281 17.8616 21.2184 17.238 20.7661 16.9211C20.3138 16.6041 19.6902 16.7138 19.3733 17.1661C19.2235 17.3799 19.065 17.5861 18.8984 17.7846C18.5432 18.2075 18.5982 18.8383 19.0211 19.1934C19.4441 19.5486 20.0748 19.4936 20.43 19.0707C20.6338 18.8279 20.8278 18.5755 21.0112 18.3139Z" fill="black" fill-opacity="0.85"/>
<path d="M3.03187 12.7875C2.98353 12.2373 2.49835 11.8305 1.94819 11.8788C1.39802 11.9272 0.991207 12.4123 1.03954 12.9625C1.0675 13.2808 1.1093 13.5964 1.16446 13.9085C1.26057 14.4524 1.77936 14.8154 2.32322 14.7192C2.86708 14.6231 3.23005 14.1043 3.13394 13.5605C3.08886 13.3053 3.05471 13.0475 3.03187 12.7875Z" fill="black" fill-opacity="0.85"/>
<path d="M17.9076 21.2795C18.3736 20.983 18.511 20.3649 18.2145 19.899C17.918 19.433 17.2999 19.2956 16.834 19.5921C16.6143 19.7319 16.3887 19.8621 16.1579 19.9825C15.6681 20.2378 15.4781 20.8417 15.7333 21.3315C15.9886 21.8212 16.5926 22.0113 17.0823 21.756C17.3641 21.6091 17.6395 21.4501 17.9076 21.2795Z" fill="black" fill-opacity="0.85"/>
<path d="M4.018 16.1581C3.76271 15.6684 3.15875 15.4783 2.66901 15.7336C2.17926 15.9889 1.9892 16.5928 2.24448 17.0826C2.39138 17.3644 2.55037 17.6398 2.72097 17.9079C3.01746 18.3738 3.63554 18.5112 4.1015 18.2147C4.56745 17.9182 4.70483 17.3002 4.40834 16.8342C4.26858 16.6146 4.13834 16.389 4.018 16.1581Z" fill="black" fill-opacity="0.85"/>
<path d="M6.21592 18.8986C5.79298 18.5435 5.1622 18.5984 4.80704 19.0214C4.45188 19.4443 4.50683 20.0751 4.92977 20.4302C5.17253 20.6341 5.42496 20.8281 5.68659 21.0114C6.13888 21.3284 6.76246 21.2186 7.07941 20.7664C7.39635 20.3141 7.28663 19.6905 6.83434 19.3735C6.62061 19.2238 6.41434 19.0652 6.21592 18.8986Z" fill="black" fill-opacity="0.85"/>
<path d="M13.9083 22.836C14.4521 22.7399 14.8151 22.2211 14.719 21.6773C14.6229 21.1334 14.1041 20.7704 13.5602 20.8665C13.3051 20.9116 13.0472 20.9458 12.7872 20.9686C12.2371 21.0169 11.8302 21.5021 11.8786 22.0523C11.9269 22.6025 12.4121 23.0093 12.9623 22.9609C13.2805 22.933 13.5961 22.8912 13.9083 22.836Z" fill="black" fill-opacity="0.85"/>
<path d="M9.29506 20.5844C8.76818 20.4188 8.20684 20.7118 8.04128 21.2386C7.87572 21.7655 8.16863 22.3269 8.69551 22.4924C8.84642 22.5398 8.99897 22.5842 9.15311 22.6255C9.30724 22.6668 9.46155 22.7047 9.61595 22.7391C10.155 22.8591 10.6894 22.5194 10.8094 21.9804C10.9295 21.4413 10.5898 20.9069 10.0507 20.7869C9.92409 20.7587 9.7974 20.7276 9.67074 20.6937C9.54409 20.6598 9.41885 20.6233 9.29506 20.5844Z" fill="black" fill-opacity="0.85"/>
<path d="M7.89639 6.33946C8.35801 6.00175 8.86269 5.71807 9.40023 5.5009C9.95135 5.27824 10.5246 5.13219 11.1035 5.05933C11.6515 4.99036 12.1516 5.37866 12.2206 5.92662C12.2895 6.47459 11.9012 6.97471 11.3533 7.04368C10.9405 7.09563 10.5355 7.1993 10.1494 7.35528C9.76947 7.50878 9.40928 7.71073 9.07727 7.95362C8.63153 8.27971 8.00584 8.18272 7.67975 7.73698C7.35366 7.29124 7.45065 6.66555 7.89639 6.33946Z" fill="black" fill-opacity="0.85"/>
<path d="M7.0432 8.49097C7.539 8.73429 7.74367 9.33346 7.50035 9.82925C7.3203 10.1961 7.18666 10.5834 7.10582 10.9825C7.02003 11.406 6.99168 11.8401 7.01849 12.2724C7.05267 12.8236 6.63352 13.2982 6.08229 13.3324C5.53107 13.3666 5.0565 12.9474 5.02232 12.3962C4.98503 11.7948 5.0241 11.1854 5.14563 10.5855C5.26164 10.0127 5.45215 9.46316 5.70491 8.94812C5.94823 8.45232 6.5474 8.24765 7.0432 8.49097Z" fill="black" fill-opacity="0.85"/>
<path d="M13.2545 6.05513C13.4538 5.54008 14.033 5.28416 14.548 5.4835C15.0911 5.69371 15.6113 5.97252 16.0921 6.31847C16.6126 6.69294 17.0709 7.13732 17.4602 7.63076C17.8023 8.06433 17.7282 8.69314 17.2946 9.03525C16.8611 9.37735 16.2323 9.3032 15.8901 8.86963C15.6117 8.51676 15.2874 8.20335 14.924 7.9419C14.5849 7.69786 14.2152 7.49927 13.8261 7.34867C13.311 7.14932 13.0551 6.57019 13.2545 6.05513Z" fill="black" fill-opacity="0.85"/>
<path d="M6.43607 14.424C6.90135 14.1264 7.51974 14.2624 7.8173 14.7276C8.04939 15.0906 8.32765 15.4223 8.64771 15.7115C8.98828 16.0192 9.36673 16.2752 9.77063 16.4758C10.2653 16.7215 10.4671 17.3216 10.2214 17.8162C9.97575 18.3109 9.37561 18.5127 8.88098 18.267C8.31582 17.9863 7.78511 17.6276 7.30684 17.1954C6.85005 16.7827 6.45726 16.3132 6.13239 15.8052C5.83484 15.3399 5.9708 14.7215 6.43607 14.424Z" fill="black" fill-opacity="0.85"/>
<path d="M17.7962 10.2103C18.3431 10.1331 18.849 10.5138 18.9263 11.0606C19.0141 11.6827 19.0194 12.3205 18.9322 12.9544C18.8454 13.5854 18.67 14.1949 18.4198 14.7672C18.1986 15.2733 17.6091 15.5042 17.103 15.283C16.597 15.0618 16.366 14.4723 16.5872 13.9662C16.7663 13.5566 16.89 13.1247 16.9509 12.6819C17.0119 12.238 17.0089 11.7862 16.9459 11.3404C16.8687 10.7935 17.2494 10.2876 17.7962 10.2103Z" fill="black" fill-opacity="0.85"/>
<path d="M11.5041 18.0629C11.4584 17.5125 11.8675 17.0292 12.4179 16.9835C12.8642 16.9465 13.3098 16.8488 13.7428 16.6871C14.162 16.5305 14.5566 16.3153 14.9171 16.0512C15.3626 15.7248 15.9883 15.8214 16.3147 16.267C16.6411 16.7125 16.5445 17.3383 16.0989 17.6646C15.5954 18.0335 15.0393 18.3378 14.4424 18.5607C13.8351 18.7875 13.2096 18.9247 12.5834 18.9767C12.033 19.0224 11.5498 18.6132 11.5041 18.0629Z" fill="black" fill-opacity="0.85"/>
<path fill-rule="evenodd" clip-rule="evenodd" d="M9.00003 12C9.00003 10.3431 10.3432 8.99998 12 8.99998C13.6569 8.99998 15 10.3431 15 12C15 13.6568 13.6569 15 12 15C10.3432 15 9.00003 13.6568 9.00003 12ZM12 11C11.4477 11 11 11.4477 11 12C11 12.5523 11.4477 13 12 13C12.5523 13 13 12.5523 13 12C13 11.4477 12.5523 11 12 11Z" fill="black" fill-opacity="0.85"/>
<path d="M11 12C11 11.4477 11.4477 11 12 11C12.5523 11 13 11.4477 13 12C13 12.5523 12.5523 13 12 13C11.4477 13 11 12.5523 11 12Z" fill="#91D5FF"/>
</svg>
