<svg width="24" height="24" viewBox="0 0 24 24" fill="none" xmlns="http://www.w3.org/2000/svg">
<path d="M6 11C8.21663 11 13.3088 13.0785 14.3 14.4C14.6574 14.8766 14.7317 15.4338 14.5784 15.9802L16.4281 15.63L18.131 15.3245L18.6302 15.2399L19.4699 15.1079L19.9586 15.0426L20.2165 15.0154C20.3317 15.0052 20.4263 15 20.5 15C22.7155 15 22.7155 17.1987 21.2071 18.7071C18.9691 20.9451 15.74 23 13 23C11.7061 23 10.6445 22.7888 9.18287 22.321L7.97831 21.9245L7.64829 21.819L7.23909 21.695L7.01283 21.6329L6.72486 21.566L6.55646 21.5364L6.39836 21.5167L6.24322 21.5054L6.0837 21.5005L1 21.5C0.447715 21.5 0 21.0523 0 20.5C0 19.9872 0.38604 19.5645 0.883379 19.5067L1 19.5L6.12328 19.5006L6.3444 19.5059L6.55292 19.518L6.75687 19.5386L6.96429 19.5695L7.18321 19.6124L7.42166 19.6689L7.68768 19.7409L7.9893 19.8299L8.52603 19.9994L9.44123 20.3013C10.9148 20.7925 11.86 21 13 21C15.0457 21 17.9059 19.1799 19.7929 17.2929C19.8622 17.2236 19.9232 17.1563 19.9763 17.0925L20.009 17.05L19.3663 17.1469L18.2156 17.3405L16.0593 17.7329L15.176 17.8999L12.1961 18.4806L12.1747 18.4849C12.1463 18.4899 12.1179 18.4937 12.0894 18.4962L12.1961 18.4806C12.1469 18.4904 12.0972 18.4965 12.0474 18.4989C12.0233 18.5001 11.9992 18.5004 11.9753 18.4998C11.959 18.4993 11.9424 18.4985 11.9258 18.4972C11.8896 18.4946 11.854 18.4899 11.8187 18.4834C11.8154 18.4828 11.8125 18.4823 11.8095 18.4817C11.7675 18.4735 11.7266 18.4628 11.6865 18.4496L8.68377 17.4487C8.15983 17.274 7.87667 16.7077 8.05132 16.1838C8.21349 15.6973 8.71338 15.4183 9.20346 15.5208L9.31623 15.5513L11.8196 16.387C11.9213 16.3035 12.0296 16.2089 12.1369 16.1068C12.3669 15.8877 12.5345 15.6819 12.6136 15.5317L12.621 15.513L12.5538 15.4495C12.2211 15.1621 11.5187 14.7807 10.6787 14.4047L10.16 14.1805C9.89423 14.0695 9.62025 13.9608 9.34431 13.8571L8.79168 13.657C7.78054 13.3051 6.79916 13.0437 6.15617 13.005L6 13C4.63416 13 2.95428 13.9599 1.70711 15.2071C1.31658 15.5976 0.683418 15.5976 0.292893 15.2071C-0.0976311 14.8166 -0.0976311 14.1834 0.292893 13.7929C1.87905 12.2067 3.99084 11 6 11ZM16 8.5C17.3807 8.5 18.5 9.61932 18.5 11C18.5 12.3807 17.3807 13.5 16 13.5C14.6193 13.5 13.5 12.3807 13.5 11C13.5 9.61932 14.6193 8.5 16 8.5ZM16 10.5C15.7239 10.5 15.5 10.7239 15.5 11C15.5 11.2761 15.7239 11.5 16 11.5C16.2761 11.5 16.5 11.2761 16.5 11C16.5 10.7239 16.2761 10.5 16 10.5ZM10 5C11.3807 5 12.5 6.11929 12.5 7.5C12.5 8.88071 11.3807 10 10 10C8.61931 10 7.5 8.88071 7.5 7.5C7.5 6.11929 8.61931 5 10 5ZM10 7C9.72387 7 9.5 7.22387 9.5 7.5C9.5 7.77613 9.72387 8 10 8C10.2761 8 10.5 7.77613 10.5 7.5C10.5 7.22387 10.2761 7 10 7ZM16 1C17.3807 1 18.5 2.11929 18.5 3.5C18.5 4.88071 17.3807 6 16 6C14.6193 6 13.5 4.88071 13.5 3.5C13.5 2.11929 14.6193 1 16 1ZM16 3C15.7239 3 15.5 3.22387 15.5 3.5C15.5 3.77613 15.7239 4 16 4C16.2761 4 16.5 3.77613 16.5 3.5C16.5 3.22387 16.2761 3 16 3Z" fill="black" fill-opacity="0.85"/>
<path d="M10 7C9.72387 7 9.5 7.22387 9.5 7.5C9.5 7.77613 9.72387 8 10 8C10.2761 8 10.5 7.77613 10.5 7.5C10.5 7.22387 10.2761 7 10 7Z" fill="#91D5FF"/>
<path d="M16 3C15.7239 3 15.5 3.22387 15.5 3.5C15.5 3.77613 15.7239 4 16 4C16.2761 4 16.5 3.77613 16.5 3.5C16.5 3.22387 16.2761 3 16 3Z" fill="#91D5FF"/>
<path d="M16 10.5C15.7239 10.5 15.5 10.7239 15.5 11C15.5 11.2761 15.7239 11.5 16 11.5C16.2761 11.5 16.5 11.2761 16.5 11C16.5 10.7239 16.2761 10.5 16 10.5Z" fill="#91D5FF"/>
</svg>
