<svg width="24" height="24" viewBox="0 0 24 24" fill="none" xmlns="http://www.w3.org/2000/svg">
<path d="M2 4C2 2.89543 2.89543 2 4 2H8C8.55228 2 9 2.44772 9 3C9 3.55228 8.55228 4 8 4H4V8C4 8.55228 3.55228 9 3 9C2.44772 9 2 8.55228 2 8V4Z" fill="black" fill-opacity="0.85"/>
<path d="M3 15C3.55228 15 4 15.4477 4 16V20H8C8.55228 20 9 20.4477 9 21C9 21.5523 8.55228 22 8 22H4C2.89544 22 2 21.1046 2 20V16C2 15.4477 2.44772 15 3 15Z" fill="black" fill-opacity="0.85"/>
<path d="M22 16C22 15.4477 21.5523 15 21 15C20.4477 15 20 15.4477 20 16V20H16C15.4477 20 15 20.4477 15 21C15 21.5523 15.4477 22 16 22H20C21.1046 22 22 21.1046 22 20V16Z" fill="black" fill-opacity="0.85"/>
<path d="M15 3C15 2.44772 15.4477 2 16 2H20C21.1046 2 22 2.89544 22 4V8C22 8.55228 21.5523 9 21 9C20.4477 9 20 8.55228 20 8V4H16C15.4477 4 15 3.55228 15 3Z" fill="black" fill-opacity="0.85"/>
<path fill-rule="evenodd" clip-rule="evenodd" d="M9.5 8C8.94772 8 8.5 8.44772 8.5 9V15C8.5 15.5523 8.94772 16 9.5 16H11V18C11 18.5523 11.4477 19 12 19C12.5523 19 13 18.5523 13 18V16H14.5C15.0523 16 15.5 15.5523 15.5 15V9C15.5 8.44772 15.0523 8 14.5 8H13V6C13 5.44772 12.5523 5 12 5C11.4477 5 11 5.44772 11 6V8H9.5ZM13.5 14V10H10.5V14H13.5Z" fill="black" fill-opacity="0.85"/>
<path d="M13.5 14V10H10.5V14H13.5Z" fill="#91D5FF"/>
</svg>
