<svg width="24" height="24" viewBox="0 0 24 24" fill="none" xmlns="http://www.w3.org/2000/svg">
<path d="M4 3C2.89543 3 2 3.89543 2 5C2 6.10459 2.89544 7 4 7C5.10456 7 6 6.10459 6 5C6 3.89543 5.10457 3 4 3Z" fill="black" fill-opacity="0.85"/>
<path fill-rule="evenodd" clip-rule="evenodd" d="M4 16C2.34314 16 1 17.3432 1 19C1 20.6568 2.34314 22 4 22C5.65683 22 7 20.6568 7 19C7 17.3432 5.65683 16 4 16ZM3 19C3 18.4477 3.44772 18 4 18C4.55227 18 5 18.4477 5 19C5 19.5523 4.55227 20 4 20C3.44772 20 3 19.5523 3 19Z" fill="black" fill-opacity="0.85"/>
<path d="M2 12C2 10.8954 2.89544 10 4 10C5.10456 10 6 10.8954 6 12C6 13.1046 5.10456 14 4 14C2.89544 14 2 13.1046 2 12Z" fill="black" fill-opacity="0.85"/>
<path d="M10 11C9.44771 11 9 11.4477 9 12C9 12.5523 9.44771 13 10 13H22C22.5523 13 23 12.5523 23 12C23 11.4477 22.5523 11 22 11H10Z" fill="black" fill-opacity="0.85"/>
<path d="M9 19C9 18.4477 9.44771 18 10 18H22C22.5523 18 23 18.4477 23 19C23 19.5523 22.5523 20 22 20H10C9.44771 20 9 19.5523 9 19Z" fill="black" fill-opacity="0.85"/>
<path d="M10 4C9.44771 4 9 4.44772 9 5C9 5.55228 9.44771 6 10 6H22C22.5523 6 23 5.55228 23 5C23 4.44772 22.5523 4 22 4H10Z" fill="black" fill-opacity="0.85"/>
<path d="M4 18C3.44772 18 3 18.4477 3 19C3 19.5523 3.44772 20 4 20C4.55227 20 5 19.5523 5 19C5 18.4477 4.55227 18 4 18Z" fill="#91D5FF"/>
</svg>
