<?xml version="1.0" encoding="UTF-8"?>
<svg version="1.1" xmlns="http://www.w3.org/2000/svg" width="500" height="500">
<path d="M0 0 C165 0 330 0 500 0 C500 165 500 330 500 500 C335 500 170 500 0 500 C0 335 0 170 0 0 Z " fill="#FEFEFE" transform="translate(0,0)"/>
<path d="M0 0 C15.84 0 31.68 0 48 0 C48 20.79 48 41.58 48 63 C32.16 63 16.32 63 0 63 C0 42.21 0 21.42 0 0 Z " fill="#A7E66F" transform="translate(380,155)"/>
<path d="M0 0 C5.7852405 4.1464181 10.03445708 10.5755843 11.3125 17.625 C12.35674834 27.79896238 9.88082856 34.27250717 4.3125 42.625 C5.09625 42.934375 5.88 43.24375 6.6875 43.5625 C9.3125 44.625 9.3125 44.625 11.3125 45.625 C10.90566505 47.98464273 10.41435661 49.48434088 9 51.4375 C7.3125 52.625 7.3125 52.625 5.25 52.375 C3.3125 51.625 3.3125 51.625 1.3125 50.625 C-0.3355777 50.58770082 -1.98526612 50.61191274 -3.6328125 50.66796875 C-5.12554687 50.69987305 -5.12554687 50.69987305 -6.6484375 50.73242188 C-8.73472268 50.78522292 -10.82074295 50.8500545 -12.90625 50.92773438 C-20.70194783 51.06300677 -25.89574716 49.81946788 -31.89453125 44.765625 C-38.66104668 36.79727106 -40.2865163 30.55194273 -40.0390625 20.03515625 C-39.21214104 12.0140181 -35.34203467 5.51590008 -29.1875 0.37109375 C-21.31911155 -4.6695926 -8.12585923 -4.3403679 0 0 Z " fill="#282828" transform="translate(205.6875,245.375)"/>
<path d="M0 0 C15.84 0 31.68 0 48 0 C48 13.53 48 27.06 48 41 C32.16 41 16.32 41 0 41 C0 27.47 0 13.94 0 0 Z " fill="#03C4CC" transform="translate(312,177)"/>
<path d="M0 0 C4.62 0 9.24 0 14 0 C16.4270744 6.77887346 18.84799387 13.55990071 21.26318359 20.34301758 C22.08602926 22.65124099 22.91056696 24.95886195 23.73681641 27.26586914 C24.92272978 30.57802697 26.10258271 33.89228902 27.28125 37.20703125 C27.65310425 38.2414888 28.0249585 39.27594635 28.40808105 40.3417511 C28.74843384 41.3025206 29.08878662 42.2632901 29.43945312 43.25317383 C29.89245789 44.52225334 29.89245789 44.52225334 30.35461426 45.81697083 C31 48 31 48 31 51 C27.37 51 23.74 51 20 51 C19.32779649 49.06441401 18.66241923 47.12645628 18 45.1875 C17.62875 44.10855469 17.2575 43.02960938 16.875 41.91796875 C16 39 16 39 16 36 C9.73 36 3.46 36 -3 36 C-3.66 38.97 -4.32 41.94 -5 45 C-5.63484067 47.01032877 -6.28771856 49.01578741 -7 51 C-10.63 51 -14.26 51 -18 51 C-16.0780926 44.44213537 -14.0036432 37.98777896 -11.6796875 31.5625 C-11.37555939 30.71574707 -11.07143127 29.86899414 -10.75808716 28.99658203 C-10.12235625 27.22823133 -9.48537224 25.46033065 -8.84716797 23.69287109 C-7.86774999 20.97991773 -6.89256066 18.2654716 -5.91796875 15.55078125 C-5.2971193 13.8254329 -4.67603419 12.10016934 -4.0546875 10.375 C-3.76302704 9.56361572 -3.47136658 8.75223145 -3.17086792 7.91625977 C-1.11624652 2.23249303 -1.11624652 2.23249303 0 0 Z " fill="#292929" transform="translate(131,244)"/>
<path d="M0 0 C4.26584561 2.42400403 7.37682855 4.82235657 10 9 C10.75 12.8125 10.75 12.8125 11 16 C7.37 16 3.74 16 0 16 C-0.33 14.865625 -0.66 13.73125 -1 12.5625 C-1.73783028 10.60490423 -1.73783028 10.60490423 -3 9 C-5.66699729 7.9220886 -8.14787723 7.67223589 -11 8 C-11.99 8.66 -12.98 9.32 -14 10 C-14.66676878 13.45749949 -14.66676878 13.45749949 -14 17 C-11.1524209 19.6577405 -7.85575467 20.34630609 -4.1875 21.375 C2.06012213 23.17468817 7.21612562 25.43568058 11 30.875 C12.5662953 35.76967281 12.61185628 39.35764894 10.8125 44.1875 C7.48635424 49.34876067 3.80504678 51.35745956 -2 53 C-9.6652709 53.8178825 -16.67065045 53.77039646 -23 49 C-26.88841677 45.31098922 -27.58558243 42.28382406 -28 37 C-24.600219 36.64964089 -21.38533743 36.46239138 -18 37 C-15.5 39.9375 -15.5 39.9375 -14 43 C-11.6603331 44.16983345 -10.16608473 44.1661241 -7.5625 44.1875 C-6.78003906 44.20167969 -5.99757813 44.21585937 -5.19140625 44.23046875 C-2.70794013 44.14086064 -2.70794013 44.14086064 0 42 C0.52324223 38.00993825 0.52324223 38.00993825 -1.0703125 34.453125 C-3.84768967 32.36165879 -6.95634323 31.63255265 -10.25 30.6875 C-16.38670322 28.79262225 -20.63316151 26.78272787 -25 22 C-26.78438576 16.64684273 -26.85857691 11.82018305 -24.4375 6.6875 C-17.57911684 -0.87430707 -9.92845235 -1.45660142 0 0 Z " fill="#292929" transform="translate(265,243)"/>
<path d="M0 0 C15.84 0 31.68 0 48 0 C48 7.92 48 15.84 48 24 C32.16 24 16.32 24 0 24 C0 16.08 0 8.16 0 0 Z " fill="#04C5CC" transform="translate(243,194)"/>
<path d="M0 0 C1.30453125 -0.03738281 2.6090625 -0.07476562 3.953125 -0.11328125 C8.32518095 0.37700074 10.37769334 1.54381628 13.75 4.3125 C16.15427111 7.91890667 16.09578876 10.64931206 16.1640625 14.82421875 C16.18342865 15.55244339 16.2027948 16.28066803 16.2227478 17.03096008 C16.28246376 19.35385475 16.32889617 21.67679919 16.375 24 C16.41318721 25.57619332 16.45223938 27.15236595 16.4921875 28.72851562 C16.58815848 32.58967535 16.67221849 36.45093276 16.75 40.3125 C13.45 40.3125 10.15 40.3125 6.75 40.3125 C6.42 38.9925 6.09 37.6725 5.75 36.3125 C5.13125 36.951875 4.5125 37.59125 3.875 38.25 C0.19913811 41.81774831 -2.7566983 41.64445059 -7.703125 41.6015625 C-11.37655571 41.18463938 -13.50299675 39.71612785 -16.25 37.3125 C-18.94459838 33.27060243 -19.02905919 30.05989196 -18.25 25.3125 C-15.73619905 21.19900754 -13.00034377 18.50638063 -8.4296875 16.76953125 C-3.76892937 15.79227551 1.01727675 16.10267483 5.75 16.3125 C5.56535634 11.97065798 5.56535634 11.97065798 3.75 8.3125 C1.07941149 8.17134839 -1.57432238 8.27002893 -4.25 8.3125 C-4.91 9.9625 -5.57 11.6125 -6.25 13.3125 C-9.55 13.3125 -12.85 13.3125 -16.25 13.3125 C-16.01001446 7.19286865 -16.01001446 7.19286865 -13.91796875 4.76953125 C-9.0617376 0.74039543 -6.23539964 0.1161496 0 0 Z " fill="#272727" transform="translate(326.25,254.6875)"/>
<path d="M0 0 C3.3 0 6.6 0 10 0 C10.33 10.56 10.66 21.12 11 32 C17.60745181 24.97882802 17.60745181 24.97882802 23.375 17.3125 C27.20583661 13.93771537 30.60628442 14.53855723 35.55078125 14.7890625 C36.76314453 14.89347656 36.76314453 14.89347656 38 15 C38 15.66 38 16.32 38 17 C37.34 17 36.68 17 36 17 C35.79632813 17.53109375 35.59265625 18.0621875 35.3828125 18.609375 C33.40494391 22.02874104 30.69673101 24.51337921 27.875 27.25 C27.31167969 27.80429687 26.74835938 28.35859375 26.16796875 28.9296875 C24.78313972 30.29104485 23.39216796 31.64614859 22 33 C24.88053266 38.29776286 28.81531882 42.52322799 32.79296875 47.00390625 C33.31761719 47.60332031 33.84226562 48.20273437 34.3828125 48.8203125 C35.10041748 49.62879639 35.10041748 49.62879639 35.83251953 50.45361328 C37 52 37 52 38 55 C33.43160222 55.83777828 29.53820098 56.09956411 25 55 C21.60696776 52.24021968 19.36457256 48.58680182 17.0234375 44.94140625 C15.26578542 41.75394081 15.26578542 41.75394081 12 41 C10.64908472 43.70183055 10.66141942 46.11808206 10.4375 49.125 C10.35371094 50.22070312 10.26992188 51.31640625 10.18359375 52.4453125 C10.12300781 53.28835938 10.06242187 54.13140625 10 55 C6.7 55 3.4 55 0 55 C0 36.85 0 18.7 0 0 Z " fill="#262626" transform="translate(394,240)"/>
<path d="M0 0 C4.83655023 2.41827511 7.36498898 5.31553596 10 10 C12.38177376 17.65006802 11.4481034 25.84080227 8 33 C5.2544751 36.43190613 3.14766676 37.74124497 -1.26953125 38.2734375 C-8.9848789 38.58157734 -8.9848789 38.58157734 -12.4375 35.875 C-17.9683499 29.66965621 -18.48985637 24.48494795 -18.27734375 16.41796875 C-17.86008313 11.27567236 -17.17356985 7.34032521 -13.5234375 3.41015625 C-9.08714004 -0.24624417 -5.63655984 -0.80522283 0 0 Z " fill="#FBFBFB" transform="translate(195,250)"/>
<path d="M0 0 C4.13282817 2.17945643 6.56802686 5.21583264 8.66015625 9.31640625 C8.66015625 10.96640625 8.66015625 12.61640625 8.66015625 14.31640625 C5.36015625 14.31640625 2.06015625 14.31640625 -1.33984375 14.31640625 C-1.62859375 13.53265625 -1.91734375 12.74890625 -2.21484375 11.94140625 C-3.18896629 9.21968993 -3.18896629 9.21968993 -5.33984375 7.31640625 C-8.42285418 6.91859845 -10.38675303 6.6861023 -13.33984375 7.31640625 C-16.55894947 10.2136014 -17.1891234 11.90195372 -17.64453125 16.17578125 C-17.76512366 21.56224241 -17.56118514 26.31838812 -15.33984375 31.31640625 C-13.90344204 31.51214233 -12.46564871 31.69768441 -11.02734375 31.87890625 C-10.22683594 31.98332031 -9.42632812 32.08773437 -8.6015625 32.1953125 C-6.17167259 32.46395803 -6.17167259 32.46395803 -3.33984375 31.31640625 C-2.11464111 28.30793207 -2.11464111 28.30793207 -1.33984375 25.31640625 C1.96015625 25.31640625 5.26015625 25.31640625 8.66015625 25.31640625 C8.28677746 30.54370935 6.54932619 33.87403391 2.66015625 37.31640625 C-3.30260518 40.96707651 -9.46554356 41.1685131 -16.33984375 40.31640625 C-21.57533515 37.84144668 -25.73213606 33.53182163 -28.33984375 28.31640625 C-29.34165992 12.38367593 -29.34165992 12.38367593 -25.33984375 6.31640625 C-18.14005866 -0.96670969 -10.20271696 -2.98076038 0 0 Z " fill="#282828" transform="translate(378.33984375,255.68359375)"/>
<path d="M0 0 C3.3 0 6.6 0 10 0 C10.09940554 5.40766124 10.17172051 10.81478228 10.21972656 16.22314453 C10.23975373 18.06015293 10.26698382 19.89709829 10.30175781 21.73388672 C10.35067065 24.38525002 10.37305763 27.03576541 10.390625 29.6875 C10.41127014 30.49928711 10.43191528 31.31107422 10.45318604 32.14746094 C10.45567291 38.56955512 8.87095886 43.80324433 4.51715088 48.65112305 C-0.04791722 52.70985922 -6.31137099 52.42061514 -12.0859375 52.3203125 C-17.15988958 51.76258586 -20.30387809 49.81309583 -23.8125 46.0625 C-26.60642274 41.20989735 -27.22108247 37.63760288 -27 32 C-23.37 32 -19.74 32 -16 32 C-15.54427083 34.27864583 -15.08854167 36.55729167 -14.6328125 38.8359375 C-14.13341068 41.18673923 -14.13341068 41.18673923 -12 43 C-9.31160615 43.26991906 -6.70858064 43.08737357 -4 43 C-0.97966037 37.94383191 -0.53520453 34.03607832 -0.48828125 28.3203125 C-0.47033005 27.50754852 -0.45237885 26.69478455 -0.43388367 25.85739136 C-0.38001642 23.2799792 -0.34596164 20.7027497 -0.3125 18.125 C-0.27930601 16.36976638 -0.24481443 14.61455679 -0.20898438 12.859375 C-0.12430389 8.57304897 -0.05738103 4.28677488 0 0 Z " fill="#292929" transform="translate(98,244)"/>
<path d="M0 0 C3.3 0 6.6 0 10 0 C10 3.3 10 6.6 10 10 C12.64 10 15.28 10 18 10 C18 12.31 18 14.62 18 17 C15.36 17 12.72 17 10 17 C10.33 24.92 10.66 32.84 11 41 C12.98 41.66 14.96 42.32 17 43 C17 45.31 17 47.62 17 50 C6.08025418 50.78371382 6.08025418 50.78371382 1.8125 47.6875 C-0.85971344 43.72525249 -1.12137231 40.91034459 -1.09765625 36.23828125 C-1.09443359 35.12001953 -1.09121094 34.00175781 -1.08789062 32.84960938 C-1.07951172 31.68236328 -1.07113281 30.51511719 -1.0625 29.3125 C-1.05798828 28.13365234 -1.05347656 26.95480469 -1.04882812 25.74023438 C-1.03703273 22.82677211 -1.0205727 19.91341137 -1 17 C-2.65 17 -4.3 17 -6 17 C-6 14.69 -6 12.38 -6 10 C-4.02 10 -2.04 10 0 10 C0 6.7 0 3.4 0 0 Z " fill="#2D2D2D" transform="translate(286,246)"/>
<path d="M0 0 C0.4247346 4.3322929 0.47048413 6.34962488 -2.125 9.9375 C-5.45904505 12.32931492 -6.98701927 12.62424145 -11 12 C-13 10 -13 10 -13.4375 6.5625 C-13 3 -13 3 -11 1.0625 C-7.10146489 -0.31823119 -4.12277052 -0.2096324 0 0 Z " fill="#F4F4F4" transform="translate(332,277)"/>
<path d="M0 0 C2.47378124 2.47378124 3.03138231 4.56174345 4.125 7.875 C4.47820312 8.92429687 4.83140625 9.97359375 5.1953125 11.0546875 C6 14 6 14 6 18 C2.37 18 -1.26 18 -5 18 C-3.72520789 11.8221613 -2.1079151 5.94432058 0 0 Z " fill="#F0F0F0" transform="translate(137,253)"/>
</svg>
