<svg width="24" height="24" viewBox="0 0 24 24" fill="none" xmlns="http://www.w3.org/2000/svg">
<path d="M12.8745 13.0016C12.9662 13.0022 13.0549 13.0029 13.1408 13.0039L13.6232 13.0127L14.0457 13.028C14.1116 13.0312 14.1754 13.0347 14.2371 13.0385L14.5856 13.0663C15.1315 13.1204 15.5156 13.2158 15.9134 13.3806C17.1386 13.8881 18.112 14.8614 18.6194 16.0866L18.6573 16.1804L18.7255 16.3649L18.7842 16.5502L18.8101 16.6449L18.8557 16.8422L18.8936 17.0546C18.8993 17.0916 18.9046 17.1295 18.9098 17.1684L18.9372 17.4146L18.9586 17.6906L18.9747 18.0021L18.9903 18.5488L18.9992 19.4565L19 21C19 21.5523 18.5523 22 18 22H6.00002C5.44763 22 4.99987 21.5521 5.00002 20.9997L5.00044 19.41L5.00394 18.8592L5.01268 18.3768L5.02801 17.9543C5.03119 17.8884 5.03469 17.8247 5.03856 17.7629L5.06627 17.4145C5.12037 16.8685 5.21585 16.4844 5.38063 16.0866C5.88807 14.8614 6.86146 13.8881 8.08657 13.3806C8.48439 13.2158 8.86849 13.1204 9.41447 13.0663L9.76289 13.0385C9.88644 13.0308 10.0179 13.0245 10.1586 13.0194L10.61 13.0076L11.1256 13.0016H12.8745ZM5.0751 13.982C5.30793 14.4389 5.15585 14.9908 4.73895 15.268L4.63809 15.327C4.07362 15.6146 3.61467 16.0735 3.32704 16.638L3.29598 16.7014L3.23968 16.833L3.19076 16.9753C3.17563 17.0251 3.16165 17.0776 3.14873 17.1336L3.1131 17.3132C3.10767 17.3452 3.10248 17.3783 3.09754 17.4126L3.0706 17.6341L3.04885 17.8901L3.0318 18.1859L3.01897 18.5267L3.00401 19.3648L3.0009 19.8726L3.00006 21C3.00006 21.5523 2.55235 22 2.00006 22C1.48723 22 1.06455 21.614 1.00679 21.1166L1.00006 21L1.00101 19.8109L1.00795 18.9823L1.0176 18.5073L1.03232 18.0871C1.03525 18.0212 1.03843 17.9574 1.04188 17.8955L1.06595 17.5455C1.12117 16.8865 1.22065 16.4615 1.39743 16.0447L1.49242 15.8359C1.50937 15.8009 1.5269 15.7656 1.54503 15.7301C2.02439 14.7892 2.7893 14.0243 3.7301 13.5449C4.22218 13.2942 4.82436 13.4899 5.0751 13.982ZM20.2699 13.5449C21.2107 14.0243 21.9756 14.7892 22.455 15.7301L22.5497 15.9251C22.5645 15.9573 22.5789 15.9894 22.5927 16.0215L22.6704 16.2155C22.6825 16.2482 22.6941 16.2811 22.7054 16.3143L22.7677 16.5185C22.7773 16.5535 22.7866 16.589 22.7954 16.6251L22.8441 16.8507C22.8589 16.929 22.8724 17.0108 22.8846 17.0968L22.9176 17.3683L22.9438 17.6702L22.9721 18.1911L22.9892 18.8085L22.9977 19.5392L23 21C23 21.5523 22.5522 22 22 22C21.4871 22 21.0645 21.614 21.0067 21.1166L21 21L20.9991 19.8726L20.9902 18.918L20.9751 18.3503L20.9603 18.0327L20.9409 17.7575L20.9166 17.5194C20.9122 17.4825 20.9074 17.447 20.9025 17.4126L20.8699 17.2204C20.8521 17.1307 20.832 17.05 20.8093 16.9753L20.7604 16.833L20.7041 16.7014C20.6941 16.6801 20.6837 16.659 20.673 16.638C20.4173 16.1363 20.0263 15.7179 19.5461 15.4291L19.3619 15.327C18.8698 15.0762 18.6742 14.474 18.9249 13.982C19.1756 13.4899 19.7778 13.2942 20.2699 13.5449ZM12.842 15.0015H11.16L10.5011 15.0105L10.1401 15.0223L9.83314 15.0394L9.57286 15.0626C9.49307 15.0714 9.41984 15.0813 9.35194 15.0924L9.16303 15.1295L8.99881 15.1747C8.94737 15.1911 8.89882 15.209 8.85193 15.2284C8.11687 15.5328 7.53286 16.1169 7.22839 16.8519C7.20897 16.8988 7.1911 16.9474 7.17466 16.9988L7.12955 17.163L7.09241 17.3519C7.08128 17.4197 7.07138 17.4929 7.06258 17.5727L7.03943 17.8328C7.03609 17.8798 7.033 17.9288 7.03014 17.9799L7.01576 18.3126L7.00344 18.9221L7.00002 20H17L16.9992 19.4928L16.9915 18.6615L16.9727 18.0377L16.9494 17.6795L16.9287 17.4825L16.9033 17.3127C16.8986 17.2863 16.8938 17.2609 16.8887 17.2362L16.8555 17.0966L16.8166 16.9704L16.7716 16.8519C16.4672 16.1169 15.8832 15.5328 15.1481 15.2284C15.1012 15.209 15.0526 15.1911 15.0012 15.1746L14.837 15.1295L14.6482 15.0924C14.5803 15.0813 14.5071 15.0714 14.4274 15.0626L14.1673 15.0394L13.8606 15.0223L13.5 15.0105L12.842 15.0015ZM12 2C14.4853 2 16.5 4.01472 16.5 6.5C16.5 8.98528 14.4853 11 12 11C9.51473 11 7.50002 8.98528 7.50002 6.5C7.50002 4.01472 9.51473 2 12 2ZM6.8202 3.05524C7.13616 3.50822 7.02509 4.13157 6.57211 4.44753C5.90472 4.91305 5.50002 5.67159 5.50002 6.5C5.50002 7.38752 5.9654 8.1934 6.71233 8.64348C7.18537 8.92852 7.33778 9.54307 7.05274 10.0161C6.7677 10.4892 6.15315 10.6416 5.6801 10.3565C4.33864 9.54819 3.50002 8.096 3.50002 6.5C3.50002 5.01077 4.22984 3.64284 5.42792 2.80715C5.8809 2.49119 6.50424 2.60227 6.8202 3.05524ZM18.5721 2.80715C19.7702 3.64284 20.5 5.01077 20.5 6.5C20.5 7.98921 19.7702 9.3572 18.5721 10.1928C18.1191 10.5088 17.4958 10.3977 17.1798 9.94473C16.8639 9.49175 16.975 8.8684 17.4279 8.55245C18.0953 8.08698 18.5 7.32838 18.5 6.5C18.5 5.67159 18.0953 4.91305 17.4279 4.44753C16.9749 4.13157 16.8639 3.50822 17.1798 3.05524C17.4958 2.60227 18.1191 2.49119 18.5721 2.80715ZM12 4C10.6193 4 9.50002 5.11929 9.50002 6.5C9.50002 7.88072 10.6193 9 12 9C13.3807 9 14.5 7.88072 14.5 6.5C14.5 5.11929 13.3807 4 12 4Z" fill="black" fill-opacity="0.85"/>
</svg>
