<svg width="24" height="24" viewBox="0 0 24 24" fill="none" xmlns="http://www.w3.org/2000/svg">
<path fill-rule="evenodd" clip-rule="evenodd" d="M12 1C9.51472 1 7.5 3.01472 7.5 5.5C7.5 7.98528 9.51472 10 12 10C14.4853 10 16.5 7.98528 16.5 5.5C16.5 3.01472 14.4853 1 12 1ZM9.5 5.5C9.5 4.11929 10.6193 3 12 3C13.3807 3 14.5 4.11929 14.5 5.5C14.5 6.88071 13.3807 8 12 8C10.6193 8 9.5 6.88071 9.5 5.5Z" fill="black" fill-opacity="0.85"/>
<path d="M3 20.5C3 16.7415 6.46775 13.5 11 13.5C11.5523 13.5 12 13.0523 12 12.5C12 11.9477 11.5523 11.5 11 11.5C5.59115 11.5 1 15.4219 1 20.5C1 21.0523 1.44772 21.5 2 21.5C2.55228 21.5 3 21.0523 3 20.5Z" fill="black" fill-opacity="0.85"/>
<path fill-rule="evenodd" clip-rule="evenodd" d="M13.5 17C13.5 14.7909 15.2909 13 17.5 13C19.7091 13 21.5 14.7909 21.5 17C21.5 17.5763 21.3781 18.1241 21.1588 18.6191L22.6 19.7001C23.0418 20.0314 23.1314 20.6582 22.8 21.1001C22.4686 21.5419 21.8418 21.6314 21.4 21.3001L19.9168 20.1876C19.2454 20.6974 18.408 21 17.5 21C15.2909 21 13.5 19.2091 13.5 17ZM17.5 15C16.3954 15 15.5 15.8954 15.5 17C15.5 18.1046 16.3954 19 17.5 19C18.6046 19 19.5 18.1046 19.5 17C19.5 15.8954 18.6046 15 17.5 15Z" fill="black" fill-opacity="0.85"/>
<path d="M12 3C10.6193 3 9.5 4.11929 9.5 5.5C9.5 6.88071 10.6193 8 12 8C13.3807 8 14.5 6.88071 14.5 5.5C14.5 4.11929 13.3807 3 12 3Z" fill="#91D5FF"/>
<path d="M15.5 17C15.5 15.8954 16.3954 15 17.5 15C18.6046 15 19.5 15.8954 19.5 17C19.5 18.1046 18.6046 19 17.5 19C16.3954 19 15.5 18.1046 15.5 17Z" fill="#91D5FF"/>
</svg>
